<svg
  width="15px"
  height="15px"
  viewBox="0 0 15 15"
  version="1.1"
  xmlns="http://www.w3.org/2000/svg"
  xmlns:xlink="http://www.w3.org/1999/xlink"
>
  <g
    id="V2"
    stroke-linecap="round"
    stroke-linejoin="round"
  >
    <g
      id="Share-Copy-2"
      transform="translate(-206.000000, -21.000000)"
    >
      <g id="Group-14" transform="translate(197.000000, 14.000000)">
        <g id="Group-8" transform="translate(10.000000, 8.000000)">
          <path
            d="M7.84441667,6.65677381 L7.89765476,6.7100119 C8.38113095,7.1934881 9.16484524,7.1934881 9.64832143,6.7100119 L12.1028452,4.25610714 C12.8246548,3.53367857 12.8246548,2.35191667 12.1028452,1.6294881 L11.0145595,0.541821429 C10.29275,-0.180607143 9.11036905,-0.180607143 8.38855952,0.541821429 L5.93403571,2.99572619 C5.45055952,3.47920238 5.45055952,4.26291667 5.93403571,4.7470119 L5.98727381,4.79963095"
            id="Stroke-146"
          />
          <path
            d="M4.79978571,5.98711905 L4.74654762,5.9345 C4.26307143,5.45040476 3.47935714,5.45040476 2.99588095,5.9345 L0.541357143,8.38840476 C-0.180452381,9.11083333 -0.180452381,10.2925952 0.541357143,11.0150238 L1.62964286,12.1026905 C2.35145238,12.825119 3.53383333,12.825119 4.25564286,12.1026905 L6.71016667,9.64878571 C7.19364286,9.16469048 7.19364286,8.38097619 6.71016667,7.8975 L6.65692857,7.8442619"
            id="Stroke-147"
          />
          <path
            d="M3.71428571,9.14828571 L8.52861905,4.33333333"
            id="Stroke-148"
          />
        </g>
      </g>
    </g>
  </g>
</svg>
