<svg version="1.1"
     xmlns="http://www.w3.org/2000/svg" xmlns:xlink="http://www.w3.org/1999/xlink" xmlns:a="http://ns.adobe.com/AdobeSVGViewerExtensions/3.0/"
     x="0px" y="0px" width="45.4px" height="37.2px" viewBox="0 0 45.4 37.2" style="enable-background:new 0 0 45.4 37.2;"
     xml:space="preserve">
<path d="M43.4,12.4h-2.1V6.2c0-1.1-0.9-2.1-2.1-2.1H12.4V2.1c0-1.1-0.9-2.1-2.1-2.1H2.1C0.9,0,0,0.9,0,2.1V31
    c0,3.4,2.8,6.2,6.2,6.2h31c4.6,0,8.3-3.7,8.3-8.3V14.5C45.4,13.3,44.5,12.4,43.4,12.4 M8.3,14.5V31c0,1.1-0.9,2.1-2.1,2.1
    S4.1,32.1,4.1,31V4.1h4.1v2.1c0,1.1,0.9,2.1,2.1,2.1h26.8v4.1H10.3C9.2,12.4,8.3,13.3,8.3,14.5"/>
</svg>
